<svg xmlns="http://www.w3.org/2000/svg" viewBox="0 0 1200.73 536.83"><defs><style>.cls-1{fill:none;stroke:#0c8744;stroke-miterlimit:10;stroke-width:2.08px;}</style></defs><title>how-it-works-section-curve-1130_1</title><g id="Layer_2" data-name="Layer 2"><g id="Layer_2-2" data-name="Layer 2"><path class="cls-1" d="M.34,525c17.49,6.11,45.25,13.2,78.55,10,59.82-5.65,101-40.93,128.81-65.34,53.53-47.06,48-71.26,112.32-125.2,15.77-13.24,33.75-28.15,61.26-42.42,17.21-8.92,60.65-30.88,117.82-32.51,53.92-1.54,109,15.33,113.1,16a296.07,296.07,0,0,0,117.35-2.83c59.67-13.59,98-41.51,106-47.6,21.78-16.57,35.85-33,46.19-45.24,28.06-33.17,34.69-53.35,52.78-81.06,7.24-11.09,41.58-63.69,87.65-89.07,67.39-37.12,148.24-9.6,178.14,2.36"/></g></g></svg>