<svg xmlns="http://www.w3.org/2000/svg" viewBox="0 0 2020.88 903.5"><defs><style>.cls-1{fill:none;stroke:#0c8744;stroke-miterlimit:10;stroke-width:3.5px;}</style></defs><title>how-it-works-section-curve-1130</title><g id="Layer_2" data-name="Layer 2"><g id="Layer_2-2" data-name="Layer 2"><path class="cls-1" d="M.58,883.53C30,893.81,76.74,905.75,132.77,900.45c100.68-9.52,170-68.89,216.8-110,90.1-79.21,80.84-119.93,189-210.72,26.56-22.28,56.8-47.36,103.11-71.38,29-15,102.08-52,198.29-54.73,90.76-2.59,183.49,25.8,190.36,27a498.51,498.51,0,0,0,197.5-4.76c100.43-22.88,165-69.87,178.46-80.11,36.65-27.9,60.33-55.57,77.73-76.15,47.23-55.83,58.38-89.79,88.83-136.42,12.19-18.66,70-107.19,147.53-149.91,113.42-62.48,249.49-16.17,299.81,4"/></g></g></svg>