<svg xmlns="http://www.w3.org/2000/svg" viewBox="0 0 1852.47 828.21"><defs><style>.cls-1{fill:none;stroke:#0c8744;stroke-miterlimit:10;stroke-width:3.21px;}</style></defs><title>how-it-works-section-curve-991</title><g id="Layer_2" data-name="Layer 2"><g id="Layer_2-2" data-name="Layer 2"><path class="cls-1" d="M.53,809.9c27,9.42,69.81,20.37,121.18,15.51,92.29-8.72,155.88-63.15,198.73-100.82C403,652,394.55,614.66,493.72,531.44,518.06,511,545.79,488,588.24,466c26.55-13.77,93.57-47.65,181.76-50.17,83.2-2.37,168.2,23.66,174.5,24.73a456.93,456.93,0,0,0,181-4.37c92.06-21,151.25-64,163.59-73.43,33.59-25.58,55.29-50.94,71.25-69.8,43.3-51.18,53.52-82.31,81.43-125C1453,150.8,1506,69.65,1577,30.49c104-57.27,228.7-14.82,274.83,3.64"/></g></g></svg>