<svg xmlns="http://www.w3.org/2000/svg" viewBox="0 0 3006.55 1344.18"><defs><style>.cls-1{fill:none;stroke:#0c8744;stroke-miterlimit:10;stroke-width:5.21px;}</style></defs><title>how-it-works-section-curve-lg_1</title><g id="Layer_2" data-name="Layer 2"><g id="Layer_2-2" data-name="Layer 2"><path class="cls-1" d="M.86,1314.47c43.79,15.29,113.3,33.06,196.67,25.17,149.79-14.16,253-102.49,322.54-163.63,134-117.83,120.28-178.41,281.24-313.49,39.5-33.15,84.5-70.46,153.4-106.2,43.09-22.35,151.86-77.34,295-81.42,135-3.85,273,38.38,283.21,40.12a741.28,741.28,0,0,0,293.82-7.08c149.42-34,245.49-103.94,265.51-119.18,54.53-41.51,89.75-82.68,115.64-113.28,70.27-83.08,86.86-133.59,132.16-203,18.13-27.77,104.13-159.47,219.49-223,168.73-93,371.17-24.06,446,5.9"/></g></g></svg>