<svg xmlns="http://www.w3.org/2000/svg" viewBox="0 0 1300.79 581.56"><defs><style>.cls-1{fill:none;stroke:#0c8744;stroke-miterlimit:10;stroke-width:2.25px;}</style></defs><title>how-it-works-section-curve_1</title><g id="Layer_2" data-name="Layer 2"><g id="Layer_2-2" data-name="Layer 2"><path class="cls-1" d="M.37,568.71c19,6.61,49,14.3,85.09,10.89,64.81-6.13,109.46-44.35,139.55-70.8,58-51,52-77.19,121.68-135.63,17.09-14.34,36.56-30.49,66.37-45.95,18.64-9.67,65.7-33.46,127.63-35.22,58.42-1.67,118.11,16.6,122.53,17.35a320.52,320.52,0,0,0,127.12-3.06c64.65-14.73,106.21-45,114.88-51.56,23.59-18,38.83-35.77,50-49,30.4-35.95,37.58-57.8,57.18-87.82,7.84-12,45.05-69,95-96.49,73-40.22,160.59-10.41,193,2.55"/></g></g></svg>