<svg xmlns="http://www.w3.org/2000/svg" viewBox="0 0 1100.67 492.09"><defs><style>.cls-1{fill:none;stroke:#0c8744;stroke-miterlimit:10;stroke-width:1.91px;}</style></defs><title>how-it-works-section-curve-991_1</title><g id="Layer_2" data-name="Layer 2"><g id="Layer_2-2" data-name="Layer 2"><path class="cls-1" d="M.31,481.21c16,5.6,41.48,12.11,72,9.22,54.84-5.18,92.62-37.52,118.08-59.9,49.07-43.14,44-65.32,103-114.77,14.46-12.14,30.94-25.8,56.16-38.88,15.77-8.18,55.6-28.31,108-29.81,49.43-1.41,99.93,14.06,103.68,14.69a271.3,271.3,0,0,0,107.56-2.59c54.7-12.46,89.87-38.05,97.2-43.63,20-15.2,32.86-30.27,42.34-41.47,25.72-30.41,31.8-48.91,48.38-74.31C863.31,89.6,894.79,41.38,937,18.12c61.77-34,135.88-8.81,163.29,2.16"/></g></g></svg>